  0
SECTION
  2
HEADER
  9
$ACADVER
  1
AC1021
  9
$ACADMAINTVER
 70
    25
  9
$DWGCODEPAGE
  3
ANSI_1252
  9
$INSBASE
 10
0.0
 20
0.0
 30
0.0
  9
$EXTMIN
 10
-0.5
 20
-0.5
 30
-0.5
  9
$EXTMAX
 10
5.0
 20
5.0
 30
5.0
  9
$LIMMIN
 10
-0.5
 20
-0.5
  9
$LIMMAX
 10
5.0
 20
5.0
  9
$ORTHOMODE
 70
     0
  9
$REGENMODE
 70
     1
  9
$FILLMODE
 70
     1
  9
$QTEXTMODE
 70
     0
  9
$MIRRTEXT
 70
     1
  9
$LTSCALE
 40
1.0
  9
$ATTMODE
 70
     1
  9
$TEXTSIZE
 40
0.2
  9
$TRACEWID
 40
0.05
  9
$TEXTSTYLE
  7
Standard
  9
$CLAYER
  8
0
  9
$CELTYPE
  6
ByLayer
  9
$CECOLOR
 62
   256
  9
$CELTSCALE
 40
1.0
  9
$DISPSILH
 70
     0
  9
$DIMSCALE
 40
1.0
  9
$DIMASZ
 40
0.18
  9
$DIMEXO
 40
0.0625
  9
$DIMDLI
 40
0.38
  9
$DIMRND
 40
0.0
  9
$DIMDLE
 40
0.0
  9
$DIMEXE
 40
0.18
  9
$DIMTP
 40
0.0
  9
$DIMTM
 40
0.0
  9
$DIMTXT
 40
0.18
  9
$DIMCEN
 40
0.09
  9
$DIMTSZ
 40
0.0
  9
$DIMTOL
 70
     0
  9
$DIMLIM
 70
     0
  9
$DIMTIH
 70
     1
  9
$DIMTOH
 70
     1
  9
$DIMSE1
 70
     0
  9
$DIMSE2
 70
     0
  9
$DIMTAD
 70
     0
  9
$DIMZIN
 70
     0
  9
$DIMBLK
  1

  9
$DIMASO
 70
     1
  9
$DIMSHO
 70
     1
  9
$DIMPOST
  1

  9
$DIMAPOST
  1

  9
$DIMALT
 70
     0
  9
$DIMALTD
 70
     2
  9
$DIMALTF
 40
25.4
  9
$DIMLFAC
 40
1.0
  9
$DIMTOFL
 70
     0
  9
$DIMTVP
 40
0.0
  9
$DIMTIX
 70
     0
  9
$DIMSOXD
 70
     0
  9
$DIMSAH
 70
     0
  9
$DIMBLK1
  1

  9
$DIMBLK2
  1

  9
$DIMSTYLE
  2
Standard
  9
$DIMCLRD
 70
     0
  9
$DIMCLRE
 70
     0
  9
$DIMCLRT
 70
     0
  9
$DIMTFAC
 40
1.0
  9
$DIMGAP
 40
0.09
  9
$DIMJUST
 70
     0
  9
$DIMSD1
 70
     0
  9
$DIMSD2
 70
     0
  9
$DIMTOLJ
 70
     1
  9
$DIMTZIN
 70
     0
  9
$DIMALTZ
 70
     0
  9
$DIMALTTZ
 70
     0
  9
$DIMUPT
 70
     0
  9
$DIMDEC
 70
     4
  9
$DIMTDEC
 70
     4
  9
$DIMALTU
 70
     2
  9
$DIMALTTD
 70
     2
  9
$DIMTXSTY
  7
Standard
  9
$DIMAUNIT
 70
     0
  9
$DIMADEC
 70
     0
  9
$DIMALTRND
 40
0.0
  9
$DIMAZIN
 70
     0
  9
$DIMDSEP
 70
    46
  9
$DIMATFIT
 70
     3
  9
$DIMFRAC
 70
     0
  9
$DIMLDRBLK
  1

  9
$DIMLUNIT
 70
     2
  9
$DIMLWD
 70
    -2
  9
$DIMLWE
 70
    -2
  9
$DIMTMOVE
 70
     0
  9
$DIMFXL
 40
1.0
  9
$DIMFXLON
 70
     0
  9
$DIMJOGANG
 40
0.785398
  9
$DIMTFILL
 70
     0
  9
$DIMTFILLCLR
 70
     0
  9
$DIMARCSYM
 70
     0
  9
$DIMLTYPE
  6

  9
$DIMLTEX1
  6

  9
$DIMLTEX2
  6

  9
$LUNITS
 70
     2
  9
$LUPREC
 70
     4
  9
$SKETCHINC
 40
0.1
  9
$FILLETRAD
 40
0.5
  9
$AUNITS
 70
     0
  9
$AUPREC
 70
     0
  9
$MENU
  1
.
  9
$ELEVATION
 40
0.0
  9
$PELEVATION
 40
0.0
  9
$THICKNESS
 40
0.0
  9
$LIMCHECK
 70
     0
  9
$CHAMFERA
 40
0.5
  9
$CHAMFERB
 40
0.5
  9
$CHAMFERC
 40
1.0
  9
$CHAMFERD
 40
0.0
  9
$SKPOLY
 70
     0
  9
$TDCREATE
 40
2458362.901896134
  9
$TDUCREATE
 40
2458362.818562801
  9
$TDUPDATE
 40
2458362.901896146
  9
$TDUUPDATE
 40
2458362.818562813
  9
$TDINDWG
 40
0.0000000116
  9
$TDUSRTIMER
 40
0.0000000116
  9
$USRTIMER
 70
     1
  9
$ANGBASE
 50
0.0
  9
$ANGDIR
 70
     0
  9
$PDMODE
 70
     0
  9
$PDSIZE
 40
0.0
  9
$PLINEWID
 40
0.0
  9
$SPLFRAME
 70
     0
  9
$SPLINETYPE
 70
     6
  9
$SPLINESEGS
 70
     8
  9
$HANDSEED
  5
D8
  9
$SURFTAB1
 70
     6
  9
$SURFTAB2
 70
     6
  9
$SURFTYPE
 70
     6
  9
$SURFU
 70
     6
  9
$SURFV
 70
     6
  9
$UCSBASE
  2

  9
$UCSNAME
  2

  9
$UCSORG
 10
0.0
 20
0.0
 30
0.0
  9
$UCSXDIR
 10
1.0
 20
0.0
 30
0.0
  9
$UCSYDIR
 10
0.0
 20
1.0
 30
0.0
  9
$UCSORTHOREF
  2

  9
$UCSORTHOVIEW
 70
     0
  9
$UCSORGTOP
 10
0.0
 20
0.0
 30
0.0
  9
$UCSORGBOTTOM
 10
0.0
 20
0.0
 30
0.0
  9
$UCSORGLEFT
 10
0.0
 20
0.0
 30
0.0
  9
$UCSORGRIGHT
 10
0.0
 20
0.0
 30
0.0
  9
$UCSORGFRONT
 10
0.0
 20
0.0
 30
0.0
  9
$UCSORGBACK
 10
0.0
 20
0.0
 30
0.0
  9
$PUCSBASE
  2

  9
$PUCSNAME
  2

  9
$PUCSORG
 10
0.0
 20
0.0
 30
0.0
  9
$PUCSXDIR
 10
1.0
 20
0.0
 30
0.0
  9
$PUCSYDIR
 10
0.0
 20
1.0
 30
0.0
  9
$PUCSORTHOREF
  2

  9
$PUCSORTHOVIEW
 70
     0
  9
$PUCSORGTOP
 10
0.0
 20
0.0
 30
0.0
  9
$PUCSORGBOTTOM
 10
0.0
 20
0.0
 30
0.0
  9
$PUCSORGLEFT
 10
0.0
 20
0.0
 30
0.0
  9
$PUCSORGRIGHT
 10
0.0
 20
0.0
 30
0.0
  9
$PUCSORGFRONT
 10
0.0
 20
0.0
 30
0.0
  9
$PUCSORGBACK
 10
0.0
 20
0.0
 30
0.0
  9
$USERI1
 70
     0
  9
$USERI2
 70
     0
  9
$USERI3
 70
     0
  9
$USERI4
 70
     0
  9
$USERI5
 70
     0
  9
$USERR1
 40
0.0
  9
$USERR2
 40
0.0
  9
$USERR3
 40
0.0
  9
$USERR4
 40
0.0
  9
$USERR5
 40
0.0
  9
$WORLDVIEW
 70
     1
  9
$SHADEDGE
 70
     3
  9
$SHADEDIF
 70
    70
  9
$TILEMODE
 70
     1
  9
$MAXACTVP
 70
    64
  9
$PINSBASE
 10
0.0
 20
0.0
 30
0.0
  9
$PLIMCHECK
 70
     0
  9
$PEXTMIN
 10
-0.5
 20
-0.5
 30
-0.5
  9
$PEXTMAX
 10
5.0
 20
5.0
 30
5.0
  9
$PLIMMIN
 10
-0.5
 20
-0.5
  9
$PLIMMAX
 10
5.0
 20
5.0
  9
$UNITMODE
 70
     0
  9
$VISRETAIN
 70
     1
  9
$PLINEGEN
 70
     0
  9
$PSLTSCALE
 70
     1
  9
$TREEDEPTH
 70
  3020
  9
$CMLSTYLE
  2
Standard
  9
$CMLJUST
 70
     0
  9
$CMLSCALE
 40
1.0
  9
$PROXYGRAPHICS
 70
     1
  9
$MEASUREMENT
 70
     1
  9
$CELWEIGHT
370
    -1
  9
$ENDCAPS
280
     0
  9
$JOINSTYLE
280
     0
  9
$LWDISPLAY
290
     0
  9
$INSUNITS
 70
     4
  9
$HYPERLINKBASE
  1

  9
$STYLESHEET
  1

  9
$XEDIT
290
     1
  9
$CEPSNTYPE
380
     0
  9
$PSTYLEMODE
290
     1
  9
$FINGERPRINTGUID
  2
{C0C6C1F3-3437-47C4-83E0-078A5E47883C}
  9
$VERSIONGUID
  2
{FAEB1C32-E019-11D5-929B-00C0DF256EC4}
  9
$EXTNAMES
290
     1
  9
$PSVPSCALE
 40
0.0
  9
$OLESTARTUP
290
     0
  9
$SORTENTS
280
   127
  9
$INDEXCTL
280
     0
  9
$HIDETEXT
280
     1
  9
$XCLIPFRAME
290
     0
  9
$HALOGAP
280
     0
  9
$OBSCOLOR
 70
   257
  9
$OBSLTYPE
280
     0
  9
$INTERSECTIONDISPLAY
280
     0
  9
$INTERSECTIONCOLOR
 70
   257
  9
$DIMASSOC
280
     2
  9
$PROJECTNAME
  1

  9
$CAMERADISPLAY
290
     0
  9
$LENSLENGTH
 40
50.0
  9
$CAMERAHEIGHT
 40
0.0
  9
$STEPSPERSEC
 40
2.0
  9
$STEPSIZE
 40
6.0
  9
$3DDWFPREC
 40
2.0
  9
$PSOLWIDTH
 40
0.25
  9
$PSOLHEIGHT
 40
4.0
  9
$LOFTANG1
 40
1.570796
  9
$LOFTANG2
 40
1.570796
  9
$LOFTMAG1
 40
0.0
  9
$LOFTMAG2
 40
0.0
  9
$LOFTPARAM
 70
     7
  9
$LOFTNORMALS
280
     1
  9
$LATITUDE
 40
37.795
  9
$LONGITUDE
 40
-122.394
  9
$NORTHDIRECTION
 40
0.0
  9
$TIMEZONE
 70
 -8000
  9
$LIGHTGLYPHDISPLAY
280
     1
  9
$TILEMODELIGHTSYNCH
280
     1
  9
$SOLIDHIST
280
     1
  9
$SHOWHIST
280
     1
  9
$DWFFRAME
280
     2
  9
$DGNFRAME
280
     2
  9
$REALWORLDSCALE
290
     1
  9
$INTERFERECOLOR
 62
   256
  9
$CSHADOW
280
     0
  9
$SHADOWPLANELOCATION
 40
0.0
  0
ENDSEC
  0
SECTION
  2
CLASSES
  0
CLASS
  1
ACDBDICTIONARYWDFLT
  2
AcDbDictionaryWithDefault
  3
ObjectDBX Classes
 90
        0
 91
        4
280
     0
281
     0
  0
CLASS
  1
VISUALSTYLE
  2
AcDbVisualStyle
  3
ObjectDBX Classes
 90
     4095
 91
        4
280
     0
281
     0
  0
ENDSEC
  0
SECTION
  2
TABLES
  0
TABLE
  2
VPORT
  5
8
330
0
100
AcDbSymbolTable
 70
    17
  0
VPORT
  5
29
330
8
100
AcDbSymbolTableRecord
100
AcDbViewportTableRecord
  2
DUMMY
 70
     0
 10
0.0
 20
0.0
 11
1.0
 21
1.0
 12
10.429907
 22
4.5
 13
0.0
 23
0.0
 14
0.5
 24
0.5
 15
0.5
 25
0.5
 16
0.0
 26
0.0
 36
1.0
 17
0.0
 27
0.0
 37
0.0
 40
9.0
 41
1.972973
 42
50.0
 43
0.0
 44
0.0
 50
0.0
 51
0.0
 71
     0
 72
   100
 73
     1
 74
     3
 75
     0
 76
     0
 77
     0
 78
     0
281
     0
 65
     1
110
0.0
120
0.0
130
0.0
111
1.0
121
0.0
131
0.0
112
0.0
122
1.0
132
0.0
 79
     0
146
0.0
 60
     3
 61
     5
292
     1
282
     1
141
0.0
142
0.0
 63
   250
  0
VPORT
  5
C6
330
8
100
AcDbSymbolTableRecord
100
AcDbViewportTableRecord
  2
*ACTIVE
 70
     0
 10
0.0
 20
0.0
 11
1.0
 21
1.0
 12
0.0
 22
0.0
 13
0.0
 23
0.0
 14
0.5
 24
0.5
 15
0.5
 25
0.5
 16
0.0
 26
0.0
 36
1.0
 17
0.0
 27
0.0
 37
0.0
 40
254.0
 41
0.069908
 42
50.0
 43
80.45651
 44
-80.45651
 50
0.0
 51
0.0
 71
     0
 72
   100
 73
     1
 74
     3
 75
     0
 76
     0
 77
     0
 78
     0
281
     0
 65
     1
110
0.0
120
0.0
130
0.0
111
1.0
121
0.0
131
0.0
112
0.0
122
1.0
132
0.0
 79
     0
146
0.0
 60
     3
 61
     5
292
     1
282
     1
141
0.0
142
0.0
 63
   256
  0
VPORT
  5
C7
330
8
100
AcDbSymbolTableRecord
100
AcDbViewportTableRecord
  2
L1
 70
     0
 10
0.0
 20
0.0
 11
1.0
 21
1.0
 12
0.0
 22
0.0
 13
0.0
 23
0.0
 14
0.5
 24
0.5
 15
0.5
 25
0.5
 16
0.0
 26
0.0
 36
1.0
 17
0.0
 27
0.0
 37
0.0
 40
254.0
 41
0.069908
 42
50.0
 43
80.45651
 44
-80.45651
 50
0.0
 51
0.0
 71
     0
 72
   100
 73
     1
 74
     3
 75
     0
 76
     0
 77
     0
 78
     0
281
     0
 65
     1
110
0.0
120
0.0
130
0.0
111
1.0
121
0.0
131
0.0
112
0.0
122
1.0
132
0.0
 79
     0
146
0.0
 60
     3
 61
     5
292
     1
282
     1
141
0.0
142
0.0
 63
   256
  0
VPORT
  5
C8
330
8
100
AcDbSymbolTableRecord
100
AcDbViewportTableRecord
  2
L2
 70
     0
 10
0.0
 20
0.0
 11
0.5
 21
1.0
 12
0.0
 22
0.0
 13
0.0
 23
0.0
 14
0.5
 24
0.5
 15
0.5
 25
0.5
 16
0.0
 26
-1.0
 36
0.0
 17
0.0
 27
0.0
 37
0.0
 40
1779.549321
 41
0.009978
 42
50.0
 43
920.547389
 44
-920.547389
 50
0.0
 51
0.0
 71
     0
 72
   100
 73
     1
 74
     3
 75
     0
 76
     0
 77
     0
 78
     0
281
     0
 65
     1
110
0.0
120
0.0
130
0.0
111
1.0
121
0.0
131
0.0
112
0.0
122
1.0
132
0.0
 79
     0
146
0.0
 60
     3
 61
     5
292
     1
282
     1
141
0.0
142
0.0
 63
   256
  0
VPORT
  5
C9
330
8
100
AcDbSymbolTableRecord
100
AcDbViewportTableRecord
  2
L2
 70
     0
 10
0.5
 20
0.0
 11
1.0
 21
1.0
 12
0.0
 22
0.0
 13
0.0
 23
0.0
 14
0.5
 24
0.5
 15
0.5
 25
0.5
 16
1.0
 26
0.0
 36
0.0
 17
0.0
 27
0.0
 37
0.0
 40
1779.549321
 41
0.009978
 42
50.0
 43
898.792494
 44
-898.792494
 50
0.0
 51
0.0
 71
     0
 72
   100
 73
     1
 74
     3
 75
     0
 76
     0
 77
     0
 78
     0
281
     0
 65
     1
110
0.0
120
0.0
130
0.0
111
1.0
121
0.0
131
0.0
112
0.0
122
1.0
132
0.0
 79
     0
146
0.0
 60
     3
 61
     5
292
     1
282
     1
141
0.0
142
0.0
 63
   256
  0
VPORT
  5
CA
330
8
100
AcDbSymbolTableRecord
100
AcDbViewportTableRecord
  2
L3
 70
     0
 10
0.0
 20
0.5
 11
1.0
 21
1.0
 12
0.0
 22
0.0
 13
0.0
 23
0.0
 14
0.5
 24
0.5
 15
0.5
 25
0.5
 16
0.0
 26
0.0
 36
1.0
 17
0.0
 27
0.0
 37
0.0
 40
254.0
 41
0.069908
 42
50.0
 43
80.45651
 44
-80.45651
 50
0.0
 51
0.0
 71
     0
 72
   100
 73
     1
 74
     3
 75
     0
 76
     0
 77
     0
 78
     0
281
     0
 65
     1
110
0.0
120
0.0
130
0.0
111
1.0
121
0.0
131
0.0
112
0.0
122
1.0
132
0.0
 79
     0
146
0.0
 60
     3
 61
     5
292
     1
282
     1
141
0.0
142
0.0
 63
   256
  0
VPORT
  5
CB
330
8
100
AcDbSymbolTableRecord
100
AcDbViewportTableRecord
  2
L3
 70
     0
 10
0.0
 20
0.0
 11
1.0
 21
0.5
 12
0.0
 22
0.0
 13
0.0
 23
0.0
 14
0.5
 24
0.5
 15
0.5
 25
0.5
 16
0.0
 26
-1.0
 36
0.0
 17
0.0
 27
0.0
 37
0.0
 40
1779.549321
 41
0.009978
 42
50.0
 43
920.547389
 44
-920.547389
 50
0.0
 51
0.0
 71
     0
 72
   100
 73
     1
 74
     3
 75
     0
 76
     0
 77
     0
 78
     0
281
     0
 65
     1
110
0.0
120
0.0
130
0.0
111
1.0
121
0.0
131
0.0
112
0.0
122
1.0
132
0.0
 79
     0
146
0.0
 60
     3
 61
     5
292
     1
282
     1
141
0.0
142
0.0
 63
   256
  0
VPORT
  5
CC
330
8
100
AcDbSymbolTableRecord
100
AcDbViewportTableRecord
  2
L4
 70
     0
 10
0.0
 20
0.5
 11
0.5
 21
1.0
 12
0.0
 22
0.0
 13
0.0
 23
0.0
 14
0.5
 24
0.5
 15
0.5
 25
0.5
 16
0.0
 26
0.0
 36
1.0
 17
0.0
 27
0.0
 37
0.0
 40
254.0
 41
0.069908
 42
50.0
 43
80.45651
 44
-80.45651
 50
0.0
 51
0.0
 71
     0
 72
   100
 73
     1
 74
     3
 75
     0
 76
     0
 77
     0
 78
     0
281
     0
 65
     1
110
0.0
120
0.0
130
0.0
111
1.0
121
0.0
131
0.0
112
0.0
122
1.0
132
0.0
 79
     0
146
0.0
 60
     3
 61
     5
292
     1
282
     1
141
0.0
142
0.0
 63
   256
  0
VPORT
  5
CD
330
8
100
AcDbSymbolTableRecord
100
AcDbViewportTableRecord
  2
L4
 70
     0
 10
0.0
 20
0.0
 11
0.5
 21
0.5
 12
0.0
 22
0.0
 13
0.0
 23
0.0
 14
0.5
 24
0.5
 15
0.5
 25
0.5
 16
0.0
 26
-1.0
 36
0.0
 17
0.0
 27
0.0
 37
0.0
 40
1779.549321
 41
0.009978
 42
50.0
 43
920.547389
 44
-920.547389
 50
0.0
 51
0.0
 71
     0
 72
   100
 73
     1
 74
     3
 75
     0
 76
     0
 77
     0
 78
     0
281
     0
 65
     1
110
0.0
120
0.0
130
0.0
111
1.0
121
0.0
131
0.0
112
0.0
122
1.0
132
0.0
 79
     0
146
0.0
 60
     3
 61
     5
292
     1
282
     1
141
0.0
142
0.0
 63
   256
  0
VPORT
  5
CE
330
8
100
AcDbSymbolTableRecord
100
AcDbViewportTableRecord
  2
L4
 70
     0
 10
0.5
 20
0.0
 11
1.0
 21
0.5
 12
0.0
 22
0.0
 13
0.0
 23
0.0
 14
0.5
 24
0.5
 15
0.5
 25
0.5
 16
1.0
 26
0.0
 36
0.0
 17
0.0
 27
0.0
 37
0.0
 40
1779.549321
 41
0.009978
 42
50.0
 43
898.792494
 44
-898.792494
 50
0.0
 51
0.0
 71
     0
 72
   100
 73
     1
 74
     3
 75
     0
 76
     0
 77
     0
 78
     0
281
     0
 65
     1
110
0.0
120
0.0
130
0.0
111
1.0
121
0.0
131
0.0
112
0.0
122
1.0
132
0.0
 79
     0
146
0.0
 60
     3
 61
     5
292
     1
282
     1
141
0.0
142
0.0
 63
   256
  0
VPORT
  5
CF
330
8
100
AcDbSymbolTableRecord
100
AcDbViewportTableRecord
  2
L4
 70
     0
 10
0.5
 20
0.5
 11
1.0
 21
1.0
 12
0.0
 22
0.0
 13
0.0
 23
0.0
 14
0.5
 24
0.5
 15
0.5
 25
0.5
 16
0.5773502691896258
 26
-0.5773502691896258
 36
0.5773502691896258
 17
0.0
 27
0.0
 37
0.0
 40
1749.405903
 41
0.01015
 42
50.0
 43
911.591687
 44
-911.591687
 50
0.0
 51
0.0
 71
     0
 72
   100
 73
     1
 74
     3
 75
     0
 76
     0
 77
     0
 78
     0
281
     0
 65
     1
110
0.0
120
0.0
130
0.0
111
1.0
121
0.0
131
0.0
112
0.0
122
1.0
132
0.0
 79
     0
146
0.0
 60
     3
 61
     5
292
     1
282
     1
141
0.0
142
0.0
 63
   256
  0
VPORT
  5
D0
330
8
100
AcDbSymbolTableRecord
100
AcDbViewportTableRecord
  2
L6
 70
     0
 10
0.0
 20
0.5
 11
0.333333
 21
1.0
 12
0.0
 22
0.0
 13
0.0
 23
0.0
 14
0.5
 24
0.5
 15
0.5
 25
0.5
 16
0.7188730927569434
 26
-0.5850486126764431
 36
0.3754192287502549
 17
0.0
 27
0.0
 37
0.0
 40
1847.02619
 41
0.009614
 42
50.0
 43
956.099309
 44
-956.099309
 50
0.0
 51
0.0
 71
     0
 72
   100
 73
     1
 74
     3
 75
     0
 76
     0
 77
     0
 78
     0
281
     0
 65
     1
110
0.0
120
0.0
130
0.0
111
1.0
121
0.0
131
0.0
112
0.0
122
1.0
132
0.0
 79
     0
146
0.0
 60
     3
 61
     5
292
     1
282
     1
141
0.0
142
0.0
 63
   256
  0
VPORT
  5
D1
330
8
100
AcDbSymbolTableRecord
100
AcDbViewportTableRecord
  2
L6
 70
     0
 10
0.0
 20
0.0
 11
0.333333
 21
0.5
 12
0.0
 22
0.0
 13
0.0
 23
0.0
 14
0.5
 24
0.5
 15
0.5
 25
0.5
 16
-1.0
 26
0.0
 36
0.0
 17
0.0
 27
0.0
 37
0.0
 40
1779.549321
 41
0.009978
 42
50.0
 43
898.792494
 44
-898.792494
 50
0.0
 51
0.0
 71
     0
 72
   100
 73
     1
 74
     3
 75
     0
 76
     0
 77
     0
 78
     0
281
     0
 65
     1
110
0.0
120
0.0
130
0.0
111
1.0
121
0.0
131
0.0
112
0.0
122
1.0
132
0.0
 79
     0
146
0.0
 60
     3
 61
     5
292
     1
282
     1
141
0.0
142
0.0
 63
   256
  0
VPORT
  5
D2
330
8
100
AcDbSymbolTableRecord
100
AcDbViewportTableRecord
  2
L6
 70
     0
 10
0.333333
 20
0.5
 11
0.666667
 21
1.0
 12
0.0
 22
0.0
 13
0.0
 23
0.0
 14
0.5
 24
0.5
 15
0.5
 25
0.5
 16
0.0
 26
0.0
 36
1.0
 17
0.0
 27
0.0
 37
0.0
 40
254.0
 41
0.069908
 42
50.0
 43
80.45651
 44
-80.45651
 50
0.0
 51
0.0
 71
     0
 72
   100
 73
     1
 74
     3
 75
     0
 76
     0
 77
     0
 78
     0
281
     0
 65
     1
110
0.0
120
0.0
130
0.0
111
1.0
121
0.0
131
0.0
112
0.0
122
1.0
132
0.0
 79
     0
146
0.0
 60
     3
 61
     5
292
     1
282
     1
141
0.0
142
0.0
 63
   256
  0
VPORT
  5
D3
330
8
100
AcDbSymbolTableRecord
100
AcDbViewportTableRecord
  2
L6
 70
     0
 10
0.333333
 20
0.0
 11
0.666667
 21
0.5
 12
0.0
 22
0.0
 13
0.0
 23
0.0
 14
0.5
 24
0.5
 15
0.5
 25
0.5
 16
0.0
 26
-1.0
 36
0.0
 17
0.0
 27
0.0
 37
0.0
 40
1779.549321
 41
0.009978
 42
50.0
 43
920.547389
 44
-920.547389
 50
0.0
 51
0.0
 71
     0
 72
   100
 73
     1
 74
     3
 75
     0
 76
     0
 77
     0
 78
     0
281
     0
 65
     1
110
0.0
120
0.0
130
0.0
111
1.0
121
0.0
131
0.0
112
0.0
122
1.0
132
0.0
 79
     0
146
0.0
 60
     3
 61
     5
292
     1
282
     1
141
0.0
142
0.0
 63
   256
  0
VPORT
  5
D4
330
8
100
AcDbSymbolTableRecord
100
AcDbViewportTableRecord
  2
L6
 70
     0
 10
0.666667
 20
0.5
 11
1.0
 21
1.0
 12
0.0
 22
0.0
 13
0.0
 23
0.0
 14
0.5
 24
0.5
 15
0.5
 25
0.5
 16
0.5773502691896258
 26
-0.5773502691896258
 36
0.5773502691896258
 17
0.0
 27
0.0
 37
0.0
 40
1749.405903
 41
0.01015
 42
50.0
 43
911.591687
 44
-911.591687
 50
0.0
 51
0.0
 71
     0
 72
   100
 73
     1
 74
     3
 75
     0
 76
     0
 77
     0
 78
     0
281
     0
 65
     1
110
0.0
120
0.0
130
0.0
111
1.0
121
0.0
131
0.0
112
0.0
122
1.0
132
0.0
 79
     0
146
0.0
 60
     3
 61
     5
292
     1
282
     1
141
0.0
142
0.0
 63
   256
  0
VPORT
  5
D5
330
8
100
AcDbSymbolTableRecord
100
AcDbViewportTableRecord
  2
L6
 70
     0
 10
0.666667
 20
0.0
 11
1.0
 21
0.5
 12
0.0
 22
0.0
 13
0.0
 23
0.0
 14
0.5
 24
0.5
 15
0.5
 25
0.5
 16
1.0
 26
0.0
 36
0.0
 17
0.0
 27
0.0
 37
0.0
 40
1779.549321
 41
0.009978
 42
50.0
 43
898.792494
 44
-898.792494
 50
0.0
 51
0.0
 71
     0
 72
   100
 73
     1
 74
     3
 75
     0
 76
     0
 77
     0
 78
     0
281
     0
 65
     1
110
0.0
120
0.0
130
0.0
111
1.0
121
0.0
131
0.0
112
0.0
122
1.0
132
0.0
 79
     0
146
0.0
 60
     3
 61
     5
292
     1
282
     1
141
0.0
142
0.0
 63
   256
  0
ENDTAB
  0
TABLE
  2
LTYPE
  5
5
330
0
100
AcDbSymbolTable
 70
     7
  0
LTYPE
  5
14
330
5
100
AcDbSymbolTableRecord
100
AcDbLinetypeTableRecord
  2
ByBlock
 70
     0
  3

 72
    65
 73
     0
 40
0.0
  0
LTYPE
  5
15
330
5
100
AcDbSymbolTableRecord
100
AcDbLinetypeTableRecord
  2
ByLayer
 70
     0
  3

 72
    65
 73
     0
 40
0.0
  0
LTYPE
  5
16
330
5
100
AcDbSymbolTableRecord
100
AcDbLinetypeTableRecord
  2
Continuous
 70
     0
  3
Solid line
 72
    65
 73
     0
 40
0.0
  0
LTYPE
  5
3B
330
5
100
AcDbSymbolTableRecord
100
AcDbLinetypeTableRecord
  2
DASHED
 70
     0
  3
__ __ __ __ __ __ __ __ __
 72
    65
 73
     2
 40
25.72
 49
12.86
 74
     4
 75
     0
340
0
 46
0.0
 50
0.0
 44
0.0
 45
0.0
 49
-12.86
 74
     4
 75
     0
340
0
 46
0.0
 50
0.0
 44
0.0
 45
0.0
  0
LTYPE
  5
3C
330
5
100
AcDbSymbolTableRecord
100
AcDbLinetypeTableRecord
  2
HIDDEN
 70
     0
  3
_ _ _ _ _ _ _ _ _ _ _ _ _ _ _
 72
    65
 73
     2
 40
0.5
 49
0.25
 74
     4
 75
     0
340
0
 46
0.0
 50
0.0
 44
0.0
 45
0.0
 49
-0.25
 74
     4
 75
     0
340
0
 46
0.0
 50
0.0
 44
0.0
 45
0.0
  0
LTYPE
  5
3D
330
5
100
AcDbSymbolTableRecord
100
AcDbLinetypeTableRecord
  2
PHANTOM
 70
     0
  3
____ _ _ ____ _ _ _____ _ _ ____
 72
    65
 73
     6
 40
50.5
 49
18.0
 74
     4
 75
     0
340
0
 46
0.0
 50
0.0
 44
0.0
 45
0.0
 49
-6.5
 74
     4
 75
     0
340
0
 46
0.0
 50
0.0
 44
0.0
 45
0.0
 49
6.5
 74
     4
 75
     0
340
0
 46
0.0
 50
0.0
 44
0.0
 45
0.0
 49
-6.5
 74
     4
 75
     0
340
0
 46
0.0
 50
0.0
 44
0.0
 45
0.0
 49
6.5
 74
     4
 75
     0
340
0
 46
0.0
 50
0.0
 44
0.0
 45
0.0
 49
-6.5
 74
     4
 75
     0
340
0
 46
0.0
 50
0.0
 44
0.0
 45
0.0
  0
LTYPE
  5
3E
330
5
100
AcDbSymbolTableRecord
100
AcDbLinetypeTableRecord
  2
CENTER
 70
     0
  3
____ _ ____ _ ____ _ ____
 72
    65
 73
     4
 40
47.4
 49
22.0
 74
     4
 75
     0
340
0
 46
0.0
 50
0.0
 44
0.0
 45
0.0
 49
-8.5
 74
     4
 75
     0
340
0
 46
0.0
 50
0.0
 44
0.0
 45
0.0
 49
8.5
 74
     4
 75
     0
340
0
 46
0.0
 50
0.0
 44
0.0
 45
0.0
 49
-8.5
 74
     4
 75
     0
340
0
 46
0.0
 50
0.0
 44
0.0
 45
0.0
  0
LTYPE
  5
3F
330
5
100
AcDbSymbolTableRecord
100
AcDbLinetypeTableRecord
  2
DOT
 70
     0
  3
.........................
 72
    65
 73
     2
 40
10.0
 49
0.0
 74
     4
 75
     0
340
0
 46
0.0
 50
0.0
 44
0.0
 45
0.0
 49
-10.0
 74
     4
 75
     0
340
0
 46
0.0
 50
0.0
 44
0.0
 45
0.0
  0
LTYPE
  5
40
330
5
100
AcDbSymbolTableRecord
100
AcDbLinetypeTableRecord
  2
DASHDOT
 70
     0
  3
_._._._._._._._._._._._._._._._.
 72
    65
 73
     4
 40
70.0
 49
31.0
 74
     4
 75
     0
340
0
 46
0.0
 50
0.0
 44
0.0
 45
0.0
 49
-13.0
 74
     4
 75
     0
340
0
 46
0.0
 50
0.0
 44
0.0
 45
0.0
 49
13.0
 74
     4
 75
     0
340
0
 46
0.0
 50
0.0
 44
0.0
 45
0.0
 49
-13.0
 74
     4
 75
     0
340
0
 46
0.0
 50
0.0
 44
0.0
 45
0.0
  0
ENDTAB
  0
TABLE
  2
LAYER
  5
2
330
0
100
AcDbSymbolTable
 70
     2
  0
LAYER
  5
10
330
2
100
AcDbSymbolTableRecord
100
AcDbLayerTableRecord
  2
0
 70
     0
 62
     7
  6
Continuous
370
    -3
390
F
347
0
  0
LAYER
  5
42
330
2
100
AcDbSymbolTableRecord
100
AcDbLayerTableRecord
  2
41
 70
     0
 62
     7
420
 16777215
  6
Continuous
370
    -3
390
F
347
0
  0
ENDTAB
  0
TABLE
  2
STYLE
  5
3
330
0
100
AcDbSymbolTable
 70
     1
  0
STYLE
  5
11
330
3
100
AcDbSymbolTableRecord
100
AcDbTextStyleTableRecord
  2
Standard
 70
     0
 40
0.0
 41
1.0
 50
0.0
 71
     0
 42
0.2
  3
txt
  4

  0
ENDTAB
  0
TABLE
  2
VIEW
  5
6
330
0
100
AcDbSymbolTable
 70
     8
  0
VIEW
  5
BE
330
6
100
AcDbSymbolTableRecord
100
AcDbViewTableRecord
  2
TOP
 70
     0
 40
254.0
 10
0.0
 20
0.0
 41
472.053173
 11
0.0
 21
0.0
 31
1.0
 12
0.0
 22
0.0
 32
0.0
 42
50.0
 43
80.45651
 44
-80.45651
 50
0.0
 71
     0
281
     0
 72
     0
 73
     0
  0
VIEW
  5
BF
330
6
100
AcDbSymbolTableRecord
100
AcDbViewTableRecord
  2
FRONT
 70
     0
 40
1779.549321
 10
0.0
 20
0.0
 41
472.053173
 11
0.0
 21
-1.0
 31
0.0
 12
0.0
 22
0.0
 32
0.0
 42
50.0
 43
920.547389
 44
-920.547389
 50
0.0
 71
     0
281
     0
 72
     0
 73
     0
  0
VIEW
  5
C0
330
6
100
AcDbSymbolTableRecord
100
AcDbViewTableRecord
  2
RIGHT
 70
     0
 40
1779.549321
 10
0.0
 20
0.0
 41
254.0
 11
1.0
 21
0.0
 31
0.0
 12
0.0
 22
0.0
 32
0.0
 42
50.0
 43
898.792494
 44
-898.792494
 50
0.0
 71
     0
281
     0
 72
     0
 73
     0
  0
VIEW
  5
C1
330
6
100
AcDbSymbolTableRecord
100
AcDbViewTableRecord
  2
BACK
 70
     0
 40
1779.549321
 10
0.0
 20
0.0
 41
472.053173
 11
0.0
 21
1.0
 31
0.0
 12
0.0
 22
0.0
 32
0.0
 42
50.0
 43
920.547389
 44
-920.547389
 50
0.0
 71
     0
281
     0
 72
     0
 73
     0
  0
VIEW
  5
C2
330
6
100
AcDbSymbolTableRecord
100
AcDbViewTableRecord
  2
BOTTOM
 70
     0
 40
254.0
 10
0.0
 20
0.0
 41
472.053173
 11
0.0
 21
0.0
 31
-1.0
 12
0.0
 22
0.0
 32
0.0
 42
50.0
 43
889.774661
 44
-889.774661
 50
180.0
 71
     0
281
     0
 72
     0
 73
     0
  0
VIEW
  5
C3
330
6
100
AcDbSymbolTableRecord
100
AcDbViewTableRecord
  2
LEFT
 70
     0
 40
1779.549321
 10
0.0
 20
0.0
 41
254.0
 11
-1.0
 21
0.0
 31
0.0
 12
0.0
 22
0.0
 32
0.0
 42
50.0
 43
898.792494
 44
-898.792494
 50
0.0
 71
     0
281
     0
 72
     0
 73
     0
  0
VIEW
  5
C4
330
6
100
AcDbSymbolTableRecord
100
AcDbViewTableRecord
  2
TFR-ISO
 70
     0
 40
1749.405903
 10
0.0
 20
0.0
 41
513.397122
 11
0.5773502691896258
 21
-0.5773502691896258
 31
0.5773502691896258
 12
0.0
 22
0.0
 32
0.0
 42
50.0
 43
911.591687
 44
-911.591687
 50
0.0
 71
     0
281
     0
 72
     0
 73
     0
  0
VIEW
  5
C5
330
6
100
AcDbSymbolTableRecord
100
AcDbViewTableRecord
  2
TFR-TRI
 70
     0
 40
1847.02619
 10
0.0
 20
0.0
 41
494.972529
 11
0.7188730927569434
 21
-0.5850486126764431
 31
0.3754192287502549
 12
0.0
 22
0.0
 32
0.0
 42
50.0
 43
956.099309
 44
-956.099309
 50
0.0
 71
     0
281
     0
 72
     0
 73
     0
  0
ENDTAB
  0
TABLE
  2
UCS
  5
7
330
0
100
AcDbSymbolTable
 70
     0
  0
ENDTAB
  0
TABLE
  2
APPID
  5
9
330
0
100
AcDbSymbolTable
 70
     1
  0
APPID
  5
12
330
9
100
AcDbSymbolTableRecord
100
AcDbRegAppTableRecord
  2
ACAD
 70
     0
  0
ENDTAB
  0
TABLE
  2
DIMSTYLE
  5
A
330
0
100
AcDbSymbolTable
 70
     1
100
AcDbDimStyleTable
  0
DIMSTYLE
105
27
330
A
100
AcDbSymbolTableRecord
100
AcDbDimStyleTableRecord
  2
Standard
 70
     0
340
11
  0
ENDTAB
  0
TABLE
  2
BLOCK_RECORD
  5
1
330
0
100
AcDbSymbolTable
 70
     1
  0
BLOCK_RECORD
  5
1F
330
1
100
AcDbSymbolTableRecord
100
AcDbBlockTableRecord
  2
*Model_Space
340
22
 70
     0
280
     1
281
     0
  0
BLOCK_RECORD
  5
1B
330
1
100
AcDbSymbolTableRecord
100
AcDbBlockTableRecord
  2
*Paper_Space
340
1E
 70
     0
280
     1
281
     0
  0
BLOCK_RECORD
  5
23
330
1
100
AcDbSymbolTableRecord
100
AcDbBlockTableRecord
  2
*Paper_Space0
340
26
 70
     0
280
     1
281
     0
  0
ENDTAB
  0
ENDSEC
  0
SECTION
  2
BLOCKS
  0
BLOCK
  5
20
330
1F
100
AcDbEntity
  8
0
100
AcDbBlockBegin
  2
*Model_Space
 70
     0
 10
0.0
 20
0.0
 30
0.0
  3
*Model_Space
  1

  0
ENDBLK
  5
21
330
1F
100
AcDbEntity
  8
0
100
AcDbBlockEnd
  0
BLOCK
  5
1C
330
1B
100
AcDbEntity
 67
     1
  8
0
100
AcDbBlockBegin
  2
*Paper_Space
 70
     0
 10
0.0
 20
0.0
 30
0.0
  3
*Paper_Space
  1

  0
ENDBLK
  5
1D
330
1B
100
AcDbEntity
 67
     1
  8
0
100
AcDbBlockEnd
  0
BLOCK
  5
24
330
23
100
AcDbEntity
  8
0
100
AcDbBlockBegin
  2
*Paper_Space0
 70
     0
 10
0.0
 20
0.0
 30
0.0
  3
*Paper_Space0
  1

  0
ENDBLK
  5
25
330
23
100
AcDbEntity
  8
0
100
AcDbBlockEnd
  0
ENDSEC
  0
SECTION
  2
ENTITIES
  0
LINE
  5
41
330
1F
100
AcDbEntity
  8
41
  6
Continuous
 62
   163
100
AcDbLine
 10
1.8
 20
-1.806239
 30
0.0
 11
1.8
 21
1.806239
 31
0.0
  0
LINE
  5
43
330
1F
100
AcDbEntity
  8
41
  6
Continuous
 62
   163
100
AcDbLine
 10
12.561643
 20
-2.589425
 30
0.0
 11
4.70022
 21
-0.482963
 31
0.0
  0
LINE
  5
44
330
1F
100
AcDbEntity
  8
41
  6
Continuous
 62
   163
100
AcDbLine
 10
-1.8
 20
1.806239
 30
0.0
 11
-1.8
 21
-1.806239
 31
0.0
  0
LINE
  5
45
330
1F
100
AcDbEntity
  8
41
  6
Continuous
 62
   163
100
AcDbLine
 10
4.70022
 20
0.482963
 30
0.0
 11
12.561643
 21
2.589425
 31
0.0
  0
LINE
  5
46
330
1F
100
AcDbEntity
  8
41
  6
Continuous
 62
   163
100
AcDbLine
 10
4.311991
 20
-1.931852
 30
0.0
 11
12.173415
 21
-4.038314
 31
0.0
  0
LINE
  5
47
330
1F
100
AcDbEntity
  8
41
  6
Continuous
 62
   163
100
AcDbLine
 10
-1.931852
 20
-4.311991
 30
0.0
 11
-4.038314
 21
-12.173415
 31
0.0
  0
LINE
  5
48
330
1F
100
AcDbEntity
  8
41
  6
Continuous
 62
   163
100
AcDbLine
 10
-8.523329
 20
-9.58399
 30
0.0
 11
-2.768368
 21
-3.829028
 31
0.0
  0
LINE
  5
49
330
1F
100
AcDbEntity
  8
41
  6
Continuous
 62
   163
100
AcDbLine
 10
-3.829028
 20
-2.768368
 30
0.0
 11
-9.58399
 21
-8.523329
 31
0.0
  0
LINE
  5
4A
330
1F
100
AcDbEntity
  8
41
  6
Continuous
 62
   163
100
AcDbLine
 10
-2.589425
 20
-12.561643
 30
0.0
 11
-0.482963
 21
-4.70022
 31
0.0
  0
LINE
  5
4B
330
1F
100
AcDbEntity
  8
41
  6
Continuous
 62
   163
100
AcDbLine
 10
0.482963
 20
-4.70022
 30
0.0
 11
2.589425
 21
-12.561643
 31
0.0
  0
LINE
  5
4C
330
1F
100
AcDbEntity
  8
41
  6
Continuous
 62
   163
100
AcDbLine
 10
4.038314
 20
-12.173415
 30
0.0
 11
1.931852
 21
-4.311991
 31
0.0
  0
LINE
  5
4D
330
1F
100
AcDbEntity
  8
41
  6
Continuous
 62
   163
100
AcDbLine
 10
2.768368
 20
-3.829028
 30
0.0
 11
8.523329
 21
-9.58399
 31
0.0
  0
LINE
  5
4E
330
1F
100
AcDbEntity
  8
41
  6
Continuous
 62
   163
100
AcDbLine
 10
9.58399
 20
-8.523329
 30
0.0
 11
3.829028
 21
-2.768368
 31
0.0
  0
LINE
  5
4F
330
1F
100
AcDbEntity
  8
41
  6
Continuous
 62
   163
100
AcDbLine
 10
-9.58399
 20
8.523329
 30
0.0
 11
-3.829028
 21
2.768368
 31
0.0
  0
LINE
  5
50
330
1F
100
AcDbEntity
  8
41
  6
Continuous
 62
   163
100
AcDbLine
 10
-12.561643
 20
2.589425
 30
0.0
 11
-4.70022
 21
0.482963
 31
0.0
  0
LINE
  5
51
330
1F
100
AcDbEntity
  8
41
  6
Continuous
 62
   163
100
AcDbLine
 10
-4.311991
 20
1.931852
 30
0.0
 11
-12.173415
 21
4.038314
 31
0.0
  0
LINE
  5
52
330
1F
100
AcDbEntity
  8
41
  6
Continuous
 62
   163
100
AcDbLine
 10
-12.173415
 20
-4.038314
 30
0.0
 11
-4.311991
 21
-1.931852
 31
0.0
  0
LINE
  5
53
330
1F
100
AcDbEntity
  8
41
  6
Continuous
 62
   163
100
AcDbLine
 10
2.589425
 20
12.561643
 30
0.0
 11
0.482963
 21
4.70022
 31
0.0
  0
LINE
  5
54
330
1F
100
AcDbEntity
  8
41
  6
Continuous
 62
   163
100
AcDbLine
 10
8.523329
 20
9.58399
 30
0.0
 11
2.768368
 21
3.829028
 31
0.0
  0
LINE
  5
55
330
1F
100
AcDbEntity
  8
41
  6
Continuous
 62
   163
100
AcDbLine
 10
12.173415
 20
4.038314
 30
0.0
 11
4.311991
 21
1.931852
 31
0.0
  0
LINE
  5
56
330
1F
100
AcDbEntity
  8
41
  6
Continuous
 62
   163
100
AcDbLine
 10
1.931852
 20
4.311991
 30
0.0
 11
4.038314
 21
12.173415
 31
0.0
  0
LINE
  5
57
330
1F
100
AcDbEntity
  8
41
  6
Continuous
 62
   163
100
AcDbLine
 10
3.829028
 20
2.768368
 30
0.0
 11
9.58399
 21
8.523329
 31
0.0
  0
LINE
  5
58
330
1F
100
AcDbEntity
  8
41
  6
Continuous
 62
   163
100
AcDbLine
 10
-4.70022
 20
-0.482963
 30
0.0
 11
-12.561643
 21
-2.589425
 31
0.0
  0
LINE
  5
59
330
1F
100
AcDbEntity
  8
41
  6
Continuous
 62
   163
100
AcDbLine
 10
-2.768368
 20
3.829028
 30
0.0
 11
-8.523329
 21
9.58399
 31
0.0
  0
LINE
  5
5A
330
1F
100
AcDbEntity
  8
41
  6
Continuous
 62
   163
100
AcDbLine
 10
-4.038314
 20
12.173415
 30
0.0
 11
-1.931852
 21
4.311991
 31
0.0
  0
LINE
  5
5B
330
1F
100
AcDbEntity
  8
41
  6
Continuous
 62
   163
100
AcDbLine
 10
-0.482963
 20
4.70022
 30
0.0
 11
-2.589425
 21
12.561643
 31
0.0
  0
ARC
  5
5C
330
1F
100
AcDbEntity
  8
41
  6
Continuous
 62
   163
100
AcDbCircle
 10
-4.823085
 20
18.0
 30
0.0
 40
3.049999999999996
100
AcDbArc
 50
228.688878
 51
341.311122
  0
ARC
  5
5D
330
1F
100
AcDbEntity
  8
41
  6
Continuous
 62
   163
100
AcDbCircle
 10
0.512996
 20
16.542048
 30
0.0
 40
1.499999999999998
210
0.0
220
0.0
230
-1.0
100
AcDbArc
 50
18.688878
 51
88.223735
  0
ARC
  5
5E
330
1F
100
AcDbEntity
  8
41
  6
Continuous
 62
   163
100
AcDbCircle
 10
0.0
 20
0.0
 30
0.0
 40
18.05
210
0.0
220
0.0
230
-1.0
100
AcDbArc
 50
88.223735
 51
91.776265
  0
ARC
  5
5F
330
1F
100
AcDbEntity
  8
41
  6
Continuous
 62
   163
100
AcDbCircle
 10
-0.512996
 20
16.542048
 30
0.0
 40
1.499999999999996
210
0.0
220
0.0
230
-1.0
100
AcDbArc
 50
91.776265
 51
161.311122
  0
ARC
  5
60
330
1F
100
AcDbEntity
  8
41
  6
Continuous
 62
   163
100
AcDbCircle
 10
7.826757
 20
14.582331
 30
0.0
 40
1.499999999999996
210
0.0
220
0.0
230
-1.0
100
AcDbArc
 50
61.776265
 51
131.311122
  0
ARC
  5
61
330
1F
100
AcDbEntity
  8
41
  6
Continuous
 62
   163
100
AcDbCircle
 10
-12.949872
 20
1.140536
 30
0.0
 40
1.499999999999996
210
0.0
220
0.0
230
-1.0
100
AcDbArc
 50
75.0
 51
174.966766
  0
ARC
  5
62
330
1F
100
AcDbEntity
  8
41
  6
Continuous
 62
   163
100
AcDbCircle
 10
0.0
 20
0.0
 30
0.0
 40
18.05
210
0.0
220
0.0
230
-1.0
100
AcDbArc
 50
208.223735
 51
211.776265
  0
ARC
  5
63
330
1F
100
AcDbEntity
  8
41
  6
Continuous
 62
   163
100
AcDbCircle
 10
13.176915
 20
13.176915
 30
0.0
 40
3.049999999999996
100
AcDbArc
 50
168.688878
 51
281.311122
  0
ARC
  5
64
330
1F
100
AcDbEntity
  8
41
  6
Continuous
 62
   163
100
AcDbCircle
 10
-16.542048
 20
-0.512996
 30
0.0
 40
1.499999999999996
210
0.0
220
0.0
230
-1.0
100
AcDbArc
 50
181.776265
 51
251.311122
  0
ARC
  5
65
330
1F
100
AcDbEntity
  8
41
  6
Continuous
 62
   163
100
AcDbCircle
 10
-14.069336
 20
-8.715291
 30
0.0
 40
1.499999999999996
210
0.0
220
0.0
230
-1.0
100
AcDbArc
 50
211.776265
 51
281.311122
  0
ARC
  5
66
330
1F
100
AcDbEntity
  8
41
  6
Continuous
 62
   163
100
AcDbCircle
 10
13.176915
 20
-13.176915
 30
0.0
 40
3.049999999999996
100
AcDbArc
 50
78.688878
 51
191.311122
  0
ARC
  5
67
330
1F
100
AcDbEntity
  8
41
  6
Continuous
 62
   163
100
AcDbCircle
 10
-8.715291
 20
-14.069336
 30
0.0
 40
1.499999999999998
210
0.0
220
0.0
230
-1.0
100
AcDbArc
 50
168.688878
 51
238.223735
  0
ARC
  5
68
330
1F
100
AcDbEntity
  8
41
  6
Continuous
 62
   163
100
AcDbCircle
 10
0.0
 20
0.0
 30
0.0
 40
18.05
210
0.0
220
0.0
230
-1.0
100
AcDbArc
 50
238.223735
 51
241.776265
  0
ARC
  5
69
330
1F
100
AcDbEntity
  8
41
  6
Continuous
 62
   163
100
AcDbCircle
 10
4.823085
 20
18.0
 30
0.0
 40
3.049999999999996
100
AcDbArc
 50
198.688878
 51
311.311122
  0
ARC
  5
6A
330
1F
100
AcDbEntity
  8
41
  6
Continuous
 62
   163
100
AcDbCircle
 10
-14.069336
 20
8.715291
 30
0.0
 40
1.499999999999998
210
0.0
220
0.0
230
-1.0
100
AcDbArc
 50
78.688878
 51
148.223735
  0
ARC
  5
6B
330
1F
100
AcDbEntity
  8
41
  6
Continuous
 62
   163
100
AcDbCircle
 10
18.0
 20
-4.823085
 30
0.0
 40
3.049999999999996
100
AcDbArc
 50
108.688878
 51
221.311122
  0
ARC
  5
6C
330
1F
100
AcDbEntity
  8
41
  6
Continuous
 62
   163
100
AcDbCircle
 10
-7.826757
 20
-14.582331
 30
0.0
 40
1.499999999999996
210
0.0
220
0.0
230
-1.0
100
AcDbArc
 50
241.776265
 51
311.311122
  0
ARC
  5
6D
330
1F
100
AcDbEntity
  8
41
  6
Continuous
 62
   163
100
AcDbCircle
 10
4.823085
 20
-18.0
 30
0.0
 40
3.049999999999996
100
AcDbArc
 50
48.688878
 51
161.311122
  0
ARC
  5
6E
330
1F
100
AcDbEntity
  8
41
  6
Continuous
 62
   163
100
AcDbCircle
 10
-0.512996
 20
-16.542048
 30
0.0
 40
1.499999999999998
210
0.0
220
0.0
230
-1.0
100
AcDbArc
 50
198.688878
 51
268.223735
  0
ARC
  5
6F
330
1F
100
AcDbEntity
  8
41
  6
Continuous
 62
   163
100
AcDbCircle
 10
0.0
 20
0.0
 30
0.0
 40
18.05
210
0.0
220
0.0
230
-1.0
100
AcDbArc
 50
268.223735
 51
271.776265
  0
ARC
  5
70
330
1F
100
AcDbEntity
  8
41
  6
Continuous
 62
   163
100
AcDbCircle
 10
-7.826757
 20
14.582331
 30
0.0
 40
1.499999999999998
210
0.0
220
0.0
230
-1.0
100
AcDbArc
 50
48.688878
 51
118.223735
  0
ARC
  5
71
330
1F
100
AcDbEntity
  8
41
  6
Continuous
 62
   163
100
AcDbCircle
 10
0.0
 20
0.0
 30
0.0
 40
18.05
210
0.0
220
0.0
230
-1.0
100
AcDbArc
 50
148.223735
 51
151.776265
  0
ARC
  5
72
330
1F
100
AcDbEntity
  8
41
  6
Continuous
 62
   163
100
AcDbCircle
 10
-14.582331
 20
-7.826757
 30
0.0
 40
1.499999999999998
210
0.0
220
0.0
230
-1.0
100
AcDbArc
 50
138.688878
 51
208.223735
  0
ARC
  5
73
330
1F
100
AcDbEntity
  8
41
  6
Continuous
 62
   163
100
AcDbCircle
 10
0.512996
 20
-16.542048
 30
0.0
 40
1.499999999999996
210
0.0
220
0.0
230
-1.0
100
AcDbArc
 50
271.776265
 51
341.311122
  0
ARC
  5
74
330
1F
100
AcDbEntity
  8
41
  6
Continuous
 62
   163
100
AcDbCircle
 10
-4.823085
 20
-18.0
 30
0.0
 40
3.049999999999996
100
AcDbArc
 50
18.688878
 51
131.311122
  0
ARC
  5
75
330
1F
100
AcDbEntity
  8
41
  6
Continuous
 62
   163
100
AcDbCircle
 10
7.826757
 20
-14.582331
 30
0.0
 40
1.499999999999998
210
0.0
220
0.0
230
-1.0
100
AcDbArc
 50
228.688878
 51
298.223735
  0
ARC
  5
76
330
1F
100
AcDbEntity
  8
41
  6
Continuous
 62
   163
100
AcDbCircle
 10
0.0
 20
0.0
 30
0.0
 40
18.05
210
0.0
220
0.0
230
-1.0
100
AcDbArc
 50
298.223735
 51
301.776265
  0
ARC
  5
77
330
1F
100
AcDbEntity
  8
41
  6
Continuous
 62
   163
100
AcDbCircle
 10
0.0
 20
0.0
 30
0.0
 40
18.05
210
0.0
220
0.0
230
-1.0
100
AcDbArc
 50
118.223735
 51
121.776265
  0
ARC
  5
78
330
1F
100
AcDbEntity
  8
41
  6
Continuous
 62
   163
100
AcDbCircle
 10
-14.582331
 20
7.826757
 30
0.0
 40
1.499999999999996
210
0.0
220
0.0
230
-1.0
100
AcDbArc
 50
151.776265
 51
221.311122
  0
ARC
  5
79
330
1F
100
AcDbEntity
  8
41
  6
Continuous
 62
   163
100
AcDbCircle
 10
0.0
 20
0.0
 30
0.0
 40
2.549999999999998
100
AcDbArc
 50
225.099128
 51
314.900872
  0
ARC
  5
7A
330
1F
100
AcDbEntity
  8
41
  6
Continuous
 62
   163
100
AcDbCircle
 10
8.715291
 20
-14.069336
 30
0.0
 40
1.499999999999996
210
0.0
220
0.0
230
-1.0
100
AcDbArc
 50
301.776265
 51
11.311122
  0
ARC
  5
7B
330
1F
100
AcDbEntity
  8
41
  6
Continuous
 62
   163
100
AcDbCircle
 10
-13.176915
 20
-13.176915
 30
0.0
 40
3.049999999999996
100
AcDbArc
 50
348.688878
 51
101.311122
  0
ARC
  5
7C
330
1F
100
AcDbEntity
  8
41
  6
Continuous
 62
   163
100
AcDbCircle
 10
14.069336
 20
-8.715291
 30
0.0
 40
1.499999999999998
210
0.0
220
0.0
230
-1.0
100
AcDbArc
 50
258.688878
 51
328.223735
  0
ARC
  5
7D
330
1F
100
AcDbEntity
  8
41
  6
Continuous
 62
   163
100
AcDbCircle
 10
0.0
 20
0.0
 30
0.0
 40
18.05
210
0.0
220
0.0
230
-1.0
100
AcDbArc
 50
328.223735
 51
331.776265
  0
ARC
  5
7E
330
1F
100
AcDbEntity
  8
41
  6
Continuous
 62
   163
100
AcDbCircle
 10
-8.715291
 20
14.069336
 30
0.0
 40
1.499999999999996
210
0.0
220
0.0
230
-1.0
100
AcDbArc
 50
121.776265
 51
191.311122
  0
ARC
  5
7F
330
1F
100
AcDbEntity
  8
41
  6
Continuous
 62
   163
100
AcDbCircle
 10
18.0
 20
4.823085
 30
0.0
 40
3.050000000000004
100
AcDbArc
 50
138.688878
 51
251.311122
  0
ARC
  5
80
330
1F
100
AcDbEntity
  8
41
  6
Continuous
 62
   163
100
AcDbCircle
 10
0.0
 20
0.0
 30
0.0
 40
2.549999999999999
100
AcDbArc
 50
45.099128
 51
134.900872
  0
ARC
  5
81
330
1F
100
AcDbEntity
  8
41
  6
Continuous
 62
   163
100
AcDbCircle
 10
14.582331
 20
-7.826757
 30
0.0
 40
1.499999999999996
210
0.0
220
0.0
230
-1.0
100
AcDbArc
 50
331.776265
 51
41.311122
  0
ARC
  5
82
330
1F
100
AcDbEntity
  8
41
  6
Continuous
 62
   163
100
AcDbCircle
 10
-18.0
 20
-4.823085
 30
0.0
 40
3.049999999999996
100
AcDbArc
 50
318.688878
 51
71.311122
  0
ARC
  5
83
330
1F
100
AcDbEntity
  8
41
  6
Continuous
 62
   163
100
AcDbCircle
 10
16.542048
 20
-0.512996
 30
0.0
 40
1.499999999999998
210
0.0
220
0.0
230
-1.0
100
AcDbArc
 50
288.688878
 51
358.223735
  0
ARC
  5
84
330
1F
100
AcDbEntity
  8
41
  6
Continuous
 62
   163
100
AcDbCircle
 10
0.0
 20
0.0
 30
0.0
 40
18.05
210
0.0
220
0.0
230
-1.0
100
AcDbArc
 50
358.223735
 51
1.776265
  0
ARC
  5
85
330
1F
100
AcDbEntity
  8
41
  6
Continuous
 62
   163
100
AcDbCircle
 10
-16.542048
 20
0.512996
 30
0.0
 40
1.499999999999998
210
0.0
220
0.0
230
-1.0
100
AcDbArc
 50
108.688878
 51
178.223735
  0
ARC
  5
86
330
1F
100
AcDbEntity
  8
41
  6
Continuous
 62
   163
100
AcDbCircle
 10
16.542048
 20
0.512996
 30
0.0
 40
1.499999999999996
210
0.0
220
0.0
230
-1.0
100
AcDbArc
 50
1.776265
 51
71.311122
  0
ARC
  5
87
330
1F
100
AcDbEntity
  8
41
  6
Continuous
 62
   163
100
AcDbCircle
 10
-18.0
 20
4.823085
 30
0.0
 40
3.049999999999996
100
AcDbArc
 50
288.688878
 51
41.311122
  0
ARC
  5
88
330
1F
100
AcDbEntity
  8
41
  6
Continuous
 62
   163
100
AcDbCircle
 10
14.582331
 20
7.826757
 30
0.0
 40
1.499999999999998
210
0.0
220
0.0
230
-1.0
100
AcDbArc
 50
318.688878
 51
28.223735
  0
ARC
  5
89
330
1F
100
AcDbEntity
  8
41
  6
Continuous
 62
   163
100
AcDbCircle
 10
0.0
 20
0.0
 30
0.0
 40
18.05
210
0.0
220
0.0
230
-1.0
100
AcDbArc
 50
28.223735
 51
31.776265
  0
ARC
  5
8A
330
1F
100
AcDbEntity
  8
41
  6
Continuous
 62
   163
100
AcDbCircle
 10
0.0
 20
0.0
 30
0.0
 40
18.05
210
0.0
220
0.0
230
-1.0
100
AcDbArc
 50
178.223735
 51
181.776265
  0
ARC
  5
8B
330
1F
100
AcDbEntity
  8
41
  6
Continuous
 62
   163
100
AcDbCircle
 10
14.069336
 20
8.715291
 30
0.0
 40
1.499999999999996
210
0.0
220
0.0
230
-1.0
100
AcDbArc
 50
31.776265
 51
101.311122
  0
ARC
  5
8C
330
1F
100
AcDbEntity
  8
41
  6
Continuous
 62
   163
100
AcDbCircle
 10
-13.176915
 20
13.176915
 30
0.0
 40
3.049999999999996
100
AcDbArc
 50
258.688878
 51
11.311122
  0
ARC
  5
8D
330
1F
100
AcDbEntity
  8
41
  6
Continuous
 62
   163
100
AcDbCircle
 10
8.715291
 20
14.069336
 30
0.0
 40
1.499999999999998
210
0.0
220
0.0
230
-1.0
100
AcDbArc
 50
348.688878
 51
58.223735
  0
ARC
  5
8E
330
1F
100
AcDbEntity
  8
41
  6
Continuous
 62
   163
100
AcDbCircle
 10
0.0
 20
0.0
 30
0.0
 40
18.05
210
0.0
220
0.0
230
-1.0
100
AcDbArc
 50
58.223735
 51
61.776265
  0
ARC
  5
8F
330
1F
100
AcDbEntity
  8
41
  6
Continuous
 62
   163
100
AcDbCircle
 10
0.0
 20
0.0
 30
0.0
 40
14.5
210
0.0
220
0.0
230
-1.0
100
AcDbArc
 50
174.966766
 51
185.033234
  0
ARC
  5
90
330
1F
100
AcDbEntity
  8
41
  6
Continuous
 62
   163
100
AcDbCircle
 10
-12.949872
 20
-1.140536
 30
0.0
 40
1.500000000000003
210
0.0
220
0.0
230
-1.0
100
AcDbArc
 50
185.033234
 51
285.0
  0
ARC
  5
91
330
1F
100
AcDbEntity
  8
41
  6
Continuous
 62
   163
100
AcDbCircle
 10
-4.829629
 20
0.0
 30
0.0
 40
0.5000000000000063
210
0.0
220
0.0
230
-1.0
100
AcDbArc
 50
285.0
 51
75.0
  0
ARC
  5
92
330
1F
100
AcDbEntity
  8
41
  6
Continuous
 62
   163
100
AcDbCircle
 10
-11.785186
 20
-5.487202
 30
0.0
 40
1.499999999999996
210
0.0
220
0.0
230
-1.0
100
AcDbArc
 50
105.0
 51
204.966766
  0
ARC
  5
93
330
1F
100
AcDbEntity
  8
41
  6
Continuous
 62
   163
100
AcDbCircle
 10
0.0
 20
0.0
 30
0.0
 40
14.5
210
0.0
220
0.0
230
-1.0
100
AcDbArc
 50
204.966766
 51
215.033234
  0
ARC
  5
94
330
1F
100
AcDbEntity
  8
41
  6
Continuous
 62
   163
100
AcDbCircle
 10
-10.64465
 20
-7.462669
 30
0.0
 40
1.500000000000003
210
0.0
220
0.0
230
-1.0
100
AcDbArc
 50
215.033234
 51
315.0
  0
ARC
  5
95
330
1F
100
AcDbEntity
  8
41
  6
Continuous
 62
   163
100
AcDbCircle
 10
-4.182582
 20
-2.414815
 30
0.0
 40
0.5000000000000063
210
0.0
220
0.0
230
-1.0
100
AcDbArc
 50
315.0
 51
105.0
  0
ARC
  5
96
330
1F
100
AcDbEntity
  8
41
  6
Continuous
 62
   163
100
AcDbCircle
 10
-7.462669
 20
-10.64465
 30
0.0
 40
1.499999999999996
210
0.0
220
0.0
230
-1.0
100
AcDbArc
 50
135.0
 51
234.966766
  0
ARC
  5
97
330
1F
100
AcDbEntity
  8
41
  6
Continuous
 62
   163
100
AcDbCircle
 10
0.0
 20
0.0
 30
0.0
 40
14.5
210
0.0
220
0.0
230
-1.0
100
AcDbArc
 50
234.966766
 51
245.033234
  0
ARC
  5
98
330
1F
100
AcDbEntity
  8
41
  6
Continuous
 62
   163
100
AcDbCircle
 10
-5.487202
 20
-11.785186
 30
0.0
 40
1.500000000000003
210
0.0
220
0.0
230
-1.0
100
AcDbArc
 50
245.033234
 51
345.0
  0
ARC
  5
99
330
1F
100
AcDbEntity
  8
41
  6
Continuous
 62
   163
100
AcDbCircle
 10
-2.414815
 20
-4.182582
 30
0.0
 40
0.5000000000000063
210
0.0
220
0.0
230
-1.0
100
AcDbArc
 50
345.0
 51
135.0
  0
ARC
  5
9A
330
1F
100
AcDbEntity
  8
41
  6
Continuous
 62
   163
100
AcDbCircle
 10
-1.140536
 20
-12.949872
 30
0.0
 40
1.499999999999996
210
0.0
220
0.0
230
-1.0
100
AcDbArc
 50
165.0
 51
264.966766
  0
ARC
  5
9B
330
1F
100
AcDbEntity
  8
41
  6
Continuous
 62
   163
100
AcDbCircle
 10
0.0
 20
0.0
 30
0.0
 40
14.5
210
0.0
220
0.0
230
-1.0
100
AcDbArc
 50
264.966766
 51
275.033234
  0
ARC
  5
9C
330
1F
100
AcDbEntity
  8
41
  6
Continuous
 62
   163
100
AcDbCircle
 10
1.140536
 20
-12.949872
 30
0.0
 40
1.500000000000003
210
0.0
220
0.0
230
-1.0
100
AcDbArc
 50
275.033234
 51
15.0
  0
ARC
  5
9D
330
1F
100
AcDbEntity
  8
41
  6
Continuous
 62
   163
100
AcDbCircle
 10
0.0
 20
-4.829629
 30
0.0
 40
0.5000000000000063
210
0.0
220
0.0
230
-1.0
100
AcDbArc
 50
15.0
 51
165.0
  0
ARC
  5
9E
330
1F
100
AcDbEntity
  8
41
  6
Continuous
 62
   163
100
AcDbCircle
 10
5.487202
 20
-11.785186
 30
0.0
 40
1.499999999999996
210
0.0
220
0.0
230
-1.0
100
AcDbArc
 50
195.0
 51
294.966766
  0
ARC
  5
9F
330
1F
100
AcDbEntity
  8
41
  6
Continuous
 62
   163
100
AcDbCircle
 10
0.0
 20
0.0
 30
0.0
 40
14.5
210
0.0
220
0.0
230
-1.0
100
AcDbArc
 50
294.966766
 51
305.033234
  0
ARC
  5
A0
330
1F
100
AcDbEntity
  8
41
  6
Continuous
 62
   163
100
AcDbCircle
 10
7.462669
 20
-10.64465
 30
0.0
 40
1.500000000000003
210
0.0
220
0.0
230
-1.0
100
AcDbArc
 50
305.033234
 51
45.0
  0
ARC
  5
A1
330
1F
100
AcDbEntity
  8
41
  6
Continuous
 62
   163
100
AcDbCircle
 10
2.414815
 20
-4.182582
 30
0.0
 40
0.5000000000000063
210
0.0
220
0.0
230
-1.0
100
AcDbArc
 50
45.0
 51
195.0
  0
ARC
  5
A2
330
1F
100
AcDbEntity
  8
41
  6
Continuous
 62
   163
100
AcDbCircle
 10
10.64465
 20
-7.462669
 30
0.0
 40
1.499999999999996
210
0.0
220
0.0
230
-1.0
100
AcDbArc
 50
225.0
 51
324.966766
  0
ARC
  5
A3
330
1F
100
AcDbEntity
  8
41
  6
Continuous
 62
   163
100
AcDbCircle
 10
0.0
 20
0.0
 30
0.0
 40
14.5
210
0.0
220
0.0
230
-1.0
100
AcDbArc
 50
324.966766
 51
335.033234
  0
ARC
  5
A4
330
1F
100
AcDbEntity
  8
41
  6
Continuous
 62
   163
100
AcDbCircle
 10
11.785186
 20
-5.487202
 30
0.0
 40
1.500000000000003
210
0.0
220
0.0
230
-1.0
100
AcDbArc
 50
335.033234
 51
75.0
  0
ARC
  5
A5
330
1F
100
AcDbEntity
  8
41
  6
Continuous
 62
   163
100
AcDbCircle
 10
4.182582
 20
-2.414815
 30
0.0
 40
0.5000000000000063
210
0.0
220
0.0
230
-1.0
100
AcDbArc
 50
75.0
 51
225.0
  0
ARC
  5
A6
330
1F
100
AcDbEntity
  8
41
  6
Continuous
 62
   163
100
AcDbCircle
 10
12.949872
 20
-1.140536
 30
0.0
 40
1.499999999999996
210
0.0
220
0.0
230
-1.0
100
AcDbArc
 50
255.0
 51
354.966766
  0
ARC
  5
A7
330
1F
100
AcDbEntity
  8
41
  6
Continuous
 62
   163
100
AcDbCircle
 10
0.0
 20
0.0
 30
0.0
 40
14.5
210
0.0
220
0.0
230
-1.0
100
AcDbArc
 50
354.966766
 51
5.033234
  0
ARC
  5
A8
330
1F
100
AcDbEntity
  8
41
  6
Continuous
 62
   163
100
AcDbCircle
 10
12.949872
 20
1.140536
 30
0.0
 40
1.500000000000003
210
0.0
220
0.0
230
-1.0
100
AcDbArc
 50
5.033234
 51
105.0
  0
ARC
  5
A9
330
1F
100
AcDbEntity
  8
41
  6
Continuous
 62
   163
100
AcDbCircle
 10
4.829629
 20
0.0
 30
0.0
 40
0.5000000000000063
210
0.0
220
0.0
230
-1.0
100
AcDbArc
 50
105.0
 51
255.0
  0
ARC
  5
AA
330
1F
100
AcDbEntity
  8
41
  6
Continuous
 62
   163
100
AcDbCircle
 10
11.785186
 20
5.487202
 30
0.0
 40
1.499999999999996
210
0.0
220
0.0
230
-1.0
100
AcDbArc
 50
285.0
 51
24.966766
  0
ARC
  5
AB
330
1F
100
AcDbEntity
  8
41
  6
Continuous
 62
   163
100
AcDbCircle
 10
0.0
 20
0.0
 30
0.0
 40
14.5
210
0.0
220
0.0
230
-1.0
100
AcDbArc
 50
24.966766
 51
35.033234
  0
ARC
  5
AC
330
1F
100
AcDbEntity
  8
41
  6
Continuous
 62
   163
100
AcDbCircle
 10
10.64465
 20
7.462669
 30
0.0
 40
1.500000000000003
210
0.0
220
0.0
230
-1.0
100
AcDbArc
 50
35.033234
 51
135.0
  0
ARC
  5
AD
330
1F
100
AcDbEntity
  8
41
  6
Continuous
 62
   163
100
AcDbCircle
 10
4.182582
 20
2.414815
 30
0.0
 40
0.5000000000000063
210
0.0
220
0.0
230
-1.0
100
AcDbArc
 50
135.0
 51
285.0
  0
ARC
  5
AE
330
1F
100
AcDbEntity
  8
41
  6
Continuous
 62
   163
100
AcDbCircle
 10
7.462669
 20
10.64465
 30
0.0
 40
1.499999999999996
210
0.0
220
0.0
230
-1.0
100
AcDbArc
 50
315.0
 51
54.966766
  0
ARC
  5
AF
330
1F
100
AcDbEntity
  8
41
  6
Continuous
 62
   163
100
AcDbCircle
 10
0.0
 20
0.0
 30
0.0
 40
14.5
210
0.0
220
0.0
230
-1.0
100
AcDbArc
 50
54.966766
 51
65.033234
  0
ARC
  5
B0
330
1F
100
AcDbEntity
  8
41
  6
Continuous
 62
   163
100
AcDbCircle
 10
5.487202
 20
11.785186
 30
0.0
 40
1.500000000000003
210
0.0
220
0.0
230
-1.0
100
AcDbArc
 50
65.033234
 51
165.0
  0
ARC
  5
B1
330
1F
100
AcDbEntity
  8
41
  6
Continuous
 62
   163
100
AcDbCircle
 10
2.414815
 20
4.182582
 30
0.0
 40
0.5000000000000063
210
0.0
220
0.0
230
-1.0
100
AcDbArc
 50
165.0
 51
315.0
  0
ARC
  5
B2
330
1F
100
AcDbEntity
  8
41
  6
Continuous
 62
   163
100
AcDbCircle
 10
1.140536
 20
12.949872
 30
0.0
 40
1.499999999999996
210
0.0
220
0.0
230
-1.0
100
AcDbArc
 50
345.0
 51
84.966766
  0
ARC
  5
B3
330
1F
100
AcDbEntity
  8
41
  6
Continuous
 62
   163
100
AcDbCircle
 10
0.0
 20
0.0
 30
0.0
 40
14.5
210
0.0
220
0.0
230
-1.0
100
AcDbArc
 50
84.966766
 51
95.033234
  0
ARC
  5
B4
330
1F
100
AcDbEntity
  8
41
  6
Continuous
 62
   163
100
AcDbCircle
 10
-1.140536
 20
12.949872
 30
0.0
 40
1.500000000000003
210
0.0
220
0.0
230
-1.0
100
AcDbArc
 50
95.033234
 51
195.0
  0
ARC
  5
B5
330
1F
100
AcDbEntity
  8
41
  6
Continuous
 62
   163
100
AcDbCircle
 10
0.0
 20
4.829629
 30
0.0
 40
0.5000000000000063
210
0.0
220
0.0
230
-1.0
100
AcDbArc
 50
195.0
 51
345.0
  0
ARC
  5
B6
330
1F
100
AcDbEntity
  8
41
  6
Continuous
 62
   163
100
AcDbCircle
 10
-5.487202
 20
11.785186
 30
0.0
 40
1.499999999999996
210
0.0
220
0.0
230
-1.0
100
AcDbArc
 50
15.0
 51
114.966766
  0
ARC
  5
B7
330
1F
100
AcDbEntity
  8
41
  6
Continuous
 62
   163
100
AcDbCircle
 10
0.0
 20
0.0
 30
0.0
 40
14.5
210
0.0
220
0.0
230
-1.0
100
AcDbArc
 50
114.966766
 51
125.033234
  0
ARC
  5
B8
330
1F
100
AcDbEntity
  8
41
  6
Continuous
 62
   163
100
AcDbCircle
 10
-7.462669
 20
10.64465
 30
0.0
 40
1.500000000000003
210
0.0
220
0.0
230
-1.0
100
AcDbArc
 50
125.033234
 51
225.0
  0
ARC
  5
B9
330
1F
100
AcDbEntity
  8
41
  6
Continuous
 62
   163
100
AcDbCircle
 10
-2.414815
 20
4.182582
 30
0.0
 40
0.5000000000000063
210
0.0
220
0.0
230
-1.0
100
AcDbArc
 50
225.0
 51
15.0
  0
ARC
  5
BA
330
1F
100
AcDbEntity
  8
41
  6
Continuous
 62
   163
100
AcDbCircle
 10
-10.64465
 20
7.462669
 30
0.0
 40
1.499999999999996
210
0.0
220
0.0
230
-1.0
100
AcDbArc
 50
45.0
 51
144.966766
  0
ARC
  5
BB
330
1F
100
AcDbEntity
  8
41
  6
Continuous
 62
   163
100
AcDbCircle
 10
0.0
 20
0.0
 30
0.0
 40
14.5
210
0.0
220
0.0
230
-1.0
100
AcDbArc
 50
144.966766
 51
155.033234
  0
ARC
  5
BC
330
1F
100
AcDbEntity
  8
41
  6
Continuous
 62
   163
100
AcDbCircle
 10
-11.785186
 20
5.487202
 30
0.0
 40
1.500000000000003
210
0.0
220
0.0
230
-1.0
100
AcDbArc
 50
155.033234
 51
255.0
  0
ARC
  5
BD
330
1F
100
AcDbEntity
  8
41
  6
Continuous
 62
   163
100
AcDbCircle
 10
-4.182582
 20
2.414815
 30
0.0
 40
0.5000000000000063
210
0.0
220
0.0
230
-1.0
100
AcDbArc
 50
255.0
 51
45.0
  0
ENDSEC
  0
SECTION
  2
OBJECTS
  0
DICTIONARY
  5
C
330
0
100
AcDbDictionary
281
     1
  3
ACAD_GROUP
350
D
  3
ACAD_LAYOUT
350
1A
  3
ACAD_MLEADERSTYLE
350
D7
  3
ACAD_MLINESTYLE
350
17
  3
ACAD_PLOTSETTINGS
350
19
  3
ACAD_PLOTSTYLENAME
350
E
  3
ACAD_TABLESTYLE
350
D6
  3
ACAD_VISUALSTYLE
350
2A
  0
DICTIONARY
  5
D
102
{ACAD_REACTORS
330
C
102
}
330
C
100
AcDbDictionary
281
     1
  0
DICTIONARY
  5
1A
102
{ACAD_REACTORS
330
C
102
}
330
C
100
AcDbDictionary
281
     1
  3
Layout1
350
1E
  3
Layout2
350
26
  3
Model
350
22
  0
DICTIONARY
  5
D7
102
{ACAD_REACTORS
330
C
102
}
330
C
100
AcDbDictionary
281
     1
  0
DICTIONARY
  5
17
102
{ACAD_REACTORS
330
C
102
}
330
C
100
AcDbDictionary
281
     1
  3
Standard
350
18
  0
DICTIONARY
  5
19
102
{ACAD_REACTORS
330
C
102
}
330
C
100
AcDbDictionary
281
     1
  0
ACDBDICTIONARYWDFLT
  5
E
102
{ACAD_REACTORS
330
C
102
}
330
C
100
AcDbDictionary
281
     1
  3
Normal
350
F
100
AcDbDictionaryWithDefault
340
F
  0
DICTIONARY
  5
D6
102
{ACAD_REACTORS
330
C
102
}
330
C
100
AcDbDictionary
281
     1
  0
DICTIONARY
  5
2A
102
{ACAD_REACTORS
330
C
102
}
330
C
100
AcDbDictionary
281
     1
  3
2dWireframe
350
2F
  3
3D Hidden
350
31
  3
3dWireframe
350
30
  3
Basic
350
32
  3
Brighten
350
36
  3
ColorChange
350
3A
  3
Conceptual
350
34
  3
Dim
350
35
  3
Facepattern
350
39
  3
Flat
350
2B
  3
FlatWithEdges
350
2C
  3
Gouraud
350
2D
  3
GouraudWithEdges
350
2E
  3
Linepattern
350
38
  3
Realistic
350
33
  3
Thicken
350
37
  0
LAYOUT
  5
1E
102
{ACAD_REACTORS
330
1A
102
}
330
1A
100
AcDbPlotSettings
  1

  2
none_device
  4

  6

 40
0.0
 41
0.0
 42
0.0
 43
0.0
 44
0.0
 45
0.0
 46
0.0
 47
0.0
 48
0.0
 49
0.0
140
0.0
141
0.0
142
1.0
143
1.0
 70
   688
 72
     0
 73
     0
 74
     5
  7

 75
    16
 76
     0
 77
     2
 78
   300
147
1.0
148
0.0
149
0.0
100
AcDbLayout
  1
Layout1
 70
     1
 71
     1
 10
-0.5
 20
-0.5
 11
5.0
 21
5.0
 12
0.0
 22
0.0
 32
0.0
 14
-0.5
 24
-0.5
 34
-0.5
 15
5.0
 25
5.0
 35
5.0
146
0.0
 13
0.0
 23
0.0
 33
0.0
 16
1.0
 26
0.0
 36
0.0
 17
0.0
 27
1.0
 37
0.0
 76
     0
330
1B
  0
LAYOUT
  5
26
102
{ACAD_REACTORS
330
1A
102
}
330
1A
100
AcDbPlotSettings
  1

  2
none_device
  4

  6

 40
0.0
 41
0.0
 42
0.0
 43
0.0
 44
0.0
 45
0.0
 46
0.0
 47
0.0
 48
0.0
 49
0.0
140
0.0
141
0.0
142
1.0
143
1.0
 70
   688
 72
     0
 73
     0
 74
     5
  7

 75
    16
 76
     0
 77
     2
 78
   300
147
1.0
148
0.0
149
0.0
100
AcDbLayout
  1
Layout2
 70
     1
 71
     2
 10
0.0
 20
0.0
 11
0.0
 21
0.0
 12
0.0
 22
0.0
 32
0.0
 14
0.0
 24
0.0
 34
0.0
 15
0.0
 25
0.0
 35
0.0
146
0.0
 13
0.0
 23
0.0
 33
0.0
 16
1.0
 26
0.0
 36
0.0
 17
0.0
 27
1.0
 37
0.0
 76
     0
330
23
  0
LAYOUT
  5
22
102
{ACAD_REACTORS
330
1A
102
}
330
1A
100
AcDbPlotSettings
  1

  2
none_device
  4

  6

 40
0.0
 41
0.0
 42
0.0
 43
0.0
 44
0.0
 45
0.0
 46
0.0
 47
0.0
 48
0.0
 49
0.0
140
0.0
141
0.0
142
1.0
143
1.0
 70
  1712
 72
     0
 73
     0
 74
     0
  7

 75
     0
 76
     0
 77
     2
 78
   300
147
1.0
148
0.0
149
0.0
100
AcDbLayout
  1
Model
 70
     1
 71
     0
 10
-0.5
 20
-0.5
 11
5.0
 21
5.0
 12
0.0
 22
0.0
 32
0.0
 14
-0.5
 24
-0.5
 34
-0.5
 15
5.0
 25
5.0
 35
5.0
146
0.0
 13
0.0
 23
0.0
 33
0.0
 16
1.0
 26
0.0
 36
0.0
 17
0.0
 27
1.0
 37
0.0
 76
     0
330
1F
331
29
  0
MLINESTYLE
  5
18
102
{ACAD_REACTORS
330
17
102
}
330
17
100
AcDbMlineStyle
  2
Standard
 70
     0
  3

 62
   256
 51
90.0
 52
90.0
 71
     2
 49
0.5
 62
   256
  6
BYLAYER
 49
-0.5
 62
   256
  6
BYLAYER
  0
ACDBPLACEHOLDER
  5
F
102
{ACAD_REACTORS
330
E
102
}
330
E
  0
VISUALSTYLE
  5
2F
102
{ACAD_REACTORS
330
2A
102
}
330
2A
100
AcDbVisualStyle
  2
2dWireframe
 70
     4
 71
     0
 72
     2
 73
     0
 90
        0
 40
-0.6
 41
-30.0
 62
     5
 63
     7
421
 16777215
 74
     1
 91
        4
 64
     7
 65
   257
 75
     1
175
     1
 42
1.0
 92
        0
 66
   257
 43
1.0
 76
     1
 77
     6
 78
     2
 67
     7
 79
     5
170
     0
171
     0
290
     0
174
     0
 93
        1
 44
0.0
173
     0
291
     0
 45
0.0
  0
VISUALSTYLE
  5
31
102
{ACAD_REACTORS
330
2A
102
}
330
2A
100
AcDbVisualStyle
  2
3D Hidden
 70
     6
 71
     1
 72
     2
 73
     2
 90
        0
 40
-0.6
 41
-30.0
 62
     5
 63
     7
421
 16777215
 74
     2
 91
        2
 64
     7
 65
   257
 75
     2
175
     1
 42
40.0
 92
        0
 66
   257
 43
1.0
 76
     1
 77
     6
 78
     2
 67
     7
 79
     3
170
     0
171
     0
290
     0
174
     0
 93
        1
 44
0.0
173
     0
291
     0
 45
0.0
  0
VISUALSTYLE
  5
30
102
{ACAD_REACTORS
330
2A
102
}
330
2A
100
AcDbVisualStyle
  2
3dWireframe
 70
     5
 71
     0
 72
     2
 73
     0
 90
        0
 40
-0.6
 41
-30.0
 62
     5
 63
     7
421
 16777215
 74
     1
 91
        4
 64
     7
 65
   257
 75
     1
175
     1
 42
1.0
 92
        0
 66
   257
 43
1.0
 76
     1
 77
     6
 78
     2
 67
     7
 79
     5
170
     0
171
     0
290
     0
174
     0
 93
        1
 44
0.0
173
     0
291
     0
 45
0.0
  0
VISUALSTYLE
  5
32
102
{ACAD_REACTORS
330
2A
102
}
330
2A
100
AcDbVisualStyle
  2
Basic
 70
     7
 71
     1
 72
     0
 73
     1
 90
        0
 40
-0.6
 41
-30.0
 62
     5
 63
     7
421
 16777215
 74
     0
 91
        4
 64
     7
 65
   257
 75
     1
175
     1
 42
1.0
 92
        8
 66
     7
 43
1.0
 76
     1
 77
     6
 78
     2
 67
     7
 79
     5
170
     0
171
     0
290
     0
174
     0
 93
        1
 44
0.0
173
     0
291
     1
 45
0.0
  0
VISUALSTYLE
  5
36
102
{ACAD_REACTORS
330
2A
102
}
330
2A
100
AcDbVisualStyle
  2
Brighten
 70
    12
 71
     2
 72
     2
 73
     0
 90
        0
 40
-0.6
 41
-30.0
 62
     5
 63
     7
421
 16777215
 74
     1
 91
        4
 64
     7
 65
   257
 75
     1
175
     1
 42
1.0
 92
        8
 66
     7
 43
1.0
 76
     1
 77
     6
 78
     2
 67
     7
 79
     5
170
     0
171
     0
290
     0
174
     0
 93
        1
 44
50.0
173
     0
291
     1
 45
0.0
  0
VISUALSTYLE
  5
3A
102
{ACAD_REACTORS
330
2A
102
}
330
2A
100
AcDbVisualStyle
  2
ColorChange
 70
    16
 71
     2
 72
     2
 73
     3
 90
        0
 40
-0.6
 41
-30.0
 62
     5
 63
     8
421
  8421504
 74
     1
 91
        4
 64
     7
 65
   257
 75
     1
175
     1
 42
1.0
 92
        8
 66
     8
424
  8421504
 43
1.0
 76
     1
 77
     6
 78
     2
 67
     7
 79
     5
170
     0
171
     0
290
     0
174
     0
 93
        1
 44
0.0
173
     0
291
     1
 45
0.0
  0
VISUALSTYLE
  5
34
102
{ACAD_REACTORS
330
2A
102
}
330
2A
100
AcDbVisualStyle
  2
Conceptual
 70
     9
 71
     3
 72
     2
 73
     0
 90
        0
 40
-0.6
 41
-30.0
 62
     5
 63
     7
421
 16777215
 74
     2
 91
        2
 64
     7
 65
   257
 75
     1
175
     1
 42
40.0
 92
        8
 66
     7
 43
1.0
 76
     1
 77
     6
 78
     2
 67
     7
 79
     3
170
     0
171
     0
290
     0
174
     0
 93
        1
 44
0.0
173
     0
291
     0
 45
0.0
  0
VISUALSTYLE
  5
35
102
{ACAD_REACTORS
330
2A
102
}
330
2A
100
AcDbVisualStyle
  2
Dim
 70
    11
 71
     2
 72
     2
 73
     0
 90
        0
 40
-0.6
 41
-30.0
 62
     5
 63
     7
421
 16777215
 74
     1
 91
        4
 64
     7
 65
   257
 75
     1
175
     1
 42
1.0
 92
        8
 66
     7
 43
1.0
 76
     1
 77
     6
 78
     2
 67
     7
 79
     5
170
     0
171
     0
290
     0
174
     0
 93
        1
 44
-50.0
173
     0
291
     1
 45
0.0
  0
VISUALSTYLE
  5
39
102
{ACAD_REACTORS
330
2A
102
}
330
2A
100
AcDbVisualStyle
  2
Facepattern
 70
    15
 71
     2
 72
     2
 73
     0
 90
        0
 40
-0.6
 41
-30.0
 62
     5
 63
     7
421
 16777215
 74
     1
 91
        4
 64
     7
 65
   257
 75
     1
175
     1
 42
1.0
 92
        8
 66
     7
 43
1.0
 76
     1
 77
     6
 78
     2
 67
     7
 79
     5
170
     0
171
     0
290
     0
174
     0
 93
        1
 44
0.0
173
     0
291
     1
 45
0.0
  0
VISUALSTYLE
  5
2B
102
{ACAD_REACTORS
330
2A
102
}
330
2A
100
AcDbVisualStyle
  2
Flat
 70
     0
 71
     2
 72
     1
 73
     1
 90
        2
 40
-0.6
 41
30.0
 62
     5
 63
     7
421
 16777215
 74
     0
 91
        4
 64
     7
 65
   257
 75
     1
175
     1
 42
1.0
 92
        8
 66
     7
 43
1.0
 76
     1
 77
     6
 78
     2
 67
     7
 79
     5
170
     0
171
     0
290
     0
174
     0
 93
       13
 44
0.0
173
     0
291
     1
 45
0.0
  0
VISUALSTYLE
  5
2C
102
{ACAD_REACTORS
330
2A
102
}
330
2A
100
AcDbVisualStyle
  2
FlatWithEdges
 70
     1
 71
     2
 72
     1
 73
     1
 90
        2
 40
-0.6
 41
30.0
 62
     5
 63
     7
421
 16777215
 74
     1
 91
        4
 64
     7
 65
   257
 75
     1
175
     1
 42
1.0
 92
        0
 66
   257
 43
1.0
 76
     1
 77
     6
 78
     2
 67
     7
 79
     5
170
     0
171
     0
290
     0
174
     0
 93
       13
 44
0.0
173
     0
291
     1
 45
0.0
  0
VISUALSTYLE
  5
2D
102
{ACAD_REACTORS
330
2A
102
}
330
2A
100
AcDbVisualStyle
  2
Gouraud
 70
     2
 71
     2
 72
     2
 73
     1
 90
        2
 40
-0.6
 41
30.0
 62
     5
 63
     7
421
 16777215
 74
     0
 91
        4
 64
     7
 65
   257
 75
     1
175
     1
 42
1.0
 92
        0
 66
     7
 43
1.0
 76
     1
 77
     6
 78
     2
 67
     7
 79
     5
170
     0
171
     0
290
     0
174
     0
 93
       13
 44
0.0
173
     0
291
     1
 45
0.0
  0
VISUALSTYLE
  5
2E
102
{ACAD_REACTORS
330
2A
102
}
330
2A
100
AcDbVisualStyle
  2
GouraudWithEdges
 70
     3
 71
     2
 72
     2
 73
     1
 90
        2
 40
-0.6
 41
30.0
 62
     5
 63
     7
421
 16777215
 74
     1
 91
        4
 64
     7
 65
   257
 75
     1
175
     1
 42
1.0
 92
        0
 66
   257
 43
1.0
 76
     1
 77
     6
 78
     2
 67
     7
 79
     5
170
     0
171
     0
290
     0
174
     0
 93
       13
 44
0.0
173
     0
291
     1
 45
0.0
  0
VISUALSTYLE
  5
38
102
{ACAD_REACTORS
330
2A
102
}
330
2A
100
AcDbVisualStyle
  2
Linepattern
 70
    14
 71
     2
 72
     2
 73
     0
 90
        0
 40
-0.6
 41
-30.0
 62
     5
 63
     7
421
 16777215
 74
     1
 91
        4
 64
     7
 65
   257
 75
     7
175
     7
 42
1.0
 92
        8
 66
     7
 43
1.0
 76
     1
 77
     6
 78
     2
 67
     7
 79
     5
170
     0
171
     0
290
     0
174
     0
 93
        1
 44
0.0
173
     0
291
     1
 45
0.0
  0
VISUALSTYLE
  5
33
102
{ACAD_REACTORS
330
2A
102
}
330
2A
100
AcDbVisualStyle
  2
Realistic
 70
     8
 71
     2
 72
     2
 73
     0
 90
        0
 40
-0.6
 41
-30.0
 62
     5
 63
     7
421
 16777215
 74
     1
 91
        0
 64
     7
 65
   257
 75
     1
175
     1
 42
1.0
 92
        8
 66
     8
424
  7895160
 43
1.0
 76
     1
 77
     6
 78
     2
 67
     7
 79
     5
170
     0
171
     0
290
     0
174
     0
 93
       13
 44
0.0
173
     0
291
     0
 45
0.0
  0
VISUALSTYLE
  5
37
102
{ACAD_REACTORS
330
2A
102
}
330
2A
100
AcDbVisualStyle
  2
Thicken
 70
    13
 71
     2
 72
     2
 73
     0
 90
        0
 40
-0.6
 41
-30.0
 62
     5
 63
     7
421
 16777215
 74
     1
 91
        4
 64
     7
 65
   257
 75
     1
175
     1
 42
1.0
 92
       12
 66
     7
 43
1.0
 76
     1
 77
     6
 78
     2
 67
     7
 79
     5
170
     0
171
     0
290
     0
174
     0
 93
        1
 44
0.0
173
     0
291
     1
 45
0.0
  0
ENDSEC
  0
EOF
